<?xml version="1.0" encoding="UTF-8"?>
<svg xmlns="http://www.w3.org/2000/svg" width="256" height="256" viewBox="0 0 256 256" role="img" aria-label="Ãcono: libro abierto">
  <rect x="0" y="0" width="256" height="256" rx="28" fill="#0d6efd"/>
  <path d="M60 78c0-10 8-18 18-18h62c10 0 18 8 18 18v132c-14-10-30-14-48-14H78c-10 0-18 8-18 18V78z" fill="#ffffff" opacity="0.95"/>
  <path d="M196 78c0-10-8-18-18-18h-62c-10 0-18 8-18 18v132c14-10 30-14 48-14h32c10 0 18 8 18 18V78z" fill="#ffffff" opacity="0.80"/>
  <text x="18" y="242" font-family="Consolas, Menlo, monospace" font-size="14" fill="#ffffff" opacity="0.85">image4.svg</text>
</svg>
